<svg width="77" height="77" viewBox="0 0 77 77" fill="none" xmlns="http://www.w3.org/2000/svg">
<g clip-path="url(#clip0_410_217)">
<path d="M62.4884 17.0824H13.5116C12.1302 17.0824 11 15.9388 11 14.5412C11 13.1435 12.1302 12 13.5116 12H62.4884C63.8698 12 65 13.1435 65 14.5412C65 15.9388 63.8698 17.0824 62.4884 17.0824Z" fill="url(#paint0_linear_410_217)"/>
<path d="M49.9302 29.3054H23.5581C22.1767 29.3054 21.0465 28.1618 21.0465 26.7642C21.0465 25.3666 22.1767 24.223 23.5581 24.223H49.9302C51.3116 24.223 52.4419 25.3666 52.4419 26.7642C52.4419 28.1618 51.3116 29.3054 49.9302 29.3054Z" fill="url(#paint1_linear_410_217)"/>
<path d="M53.6977 41.5412H31.093C29.7117 41.5412 28.5814 40.3977 28.5814 39C28.5814 37.6024 29.7117 36.4589 31.093 36.4589H53.6977C55.0791 36.4589 56.2093 37.6024 56.2093 39C56.2093 40.3977 55.0791 41.5412 53.6977 41.5412Z" fill="url(#paint2_linear_410_217)"/>
<path d="M46.1628 53.7769H31.093C29.7117 53.7769 28.5814 52.6334 28.5814 51.2358C28.5814 49.8381 29.7117 48.6946 31.093 48.6946H46.1628C47.5442 48.6946 48.6744 49.8381 48.6744 51.2358C48.6744 52.6334 47.5442 53.7769 46.1628 53.7769Z" fill="url(#paint3_linear_410_217)"/>
<path d="M34.2325 66H32.9767C31.5953 66 30.4651 64.8564 30.4651 63.4588C30.4651 62.0611 31.5953 60.9176 32.9767 60.9176H34.2325C35.6139 60.9176 36.7442 62.0611 36.7442 63.4588C36.7442 64.8564 35.6139 66 34.2325 66Z" fill="url(#paint4_linear_410_217)"/>
</g>
<defs>
<linearGradient id="paint0_linear_410_217" x1="11" y1="14.5412" x2="65" y2="14.5412" gradientUnits="userSpaceOnUse">
<stop stop-color="#D0E8F8"/>
<stop offset="1" stop-color="#E1EEF9"/>
</linearGradient>
<linearGradient id="paint1_linear_410_217" x1="21.0465" y1="26.7642" x2="52.4419" y2="26.7642" gradientUnits="userSpaceOnUse">
<stop stop-color="#D0E8F8"/>
<stop offset="1" stop-color="#E1EEF9"/>
</linearGradient>
<linearGradient id="paint2_linear_410_217" x1="28.5814" y1="39" x2="56.2093" y2="39" gradientUnits="userSpaceOnUse">
<stop stop-color="#D0E8F8"/>
<stop offset="1" stop-color="#E1EEF9"/>
</linearGradient>
<linearGradient id="paint3_linear_410_217" x1="28.5814" y1="51.2358" x2="48.6744" y2="51.2358" gradientUnits="userSpaceOnUse">
<stop stop-color="#D0E8F8"/>
<stop offset="1" stop-color="#E1EEF9"/>
</linearGradient>
<linearGradient id="paint4_linear_410_217" x1="30.4651" y1="63.4588" x2="36.7442" y2="63.4588" gradientUnits="userSpaceOnUse">
<stop stop-color="#D0E8F8"/>
<stop offset="1" stop-color="#E1EEF9"/>
</linearGradient>
<clipPath id="clip0_410_217">
<rect width="54" height="54" fill="white" transform="translate(11 12)"/>
</clipPath>
</defs>
</svg>
