<?xml version="1.0" encoding="UTF-8"?>
<svg id="Layer_2" data-name="Layer 2" xmlns="http://www.w3.org/2000/svg" xmlns:xlink="http://www.w3.org/1999/xlink" viewBox="0 0 66.92 65.11">
  <defs>
    <style>
      .cls-1 {
        fill: #fff;
      }

      .cls-2 {
        fill: url(#New_Gradient_Swatch_copy_2-4);
      }

      .cls-3 {
        fill: url(#New_Gradient_Swatch_copy_2-6);
      }

      .cls-4 {
        fill: url(#New_Gradient_Swatch_copy_2);
      }

      .cls-5 {
        fill: url(#New_Gradient_Swatch_copy_2-2);
      }

      .cls-6 {
        fill: url(#New_Gradient_Swatch_copy_2-5);
      }

      .cls-7 {
        fill: url(#New_Gradient_Swatch_copy_2-3);
      }

      .cls-8 {
        fill: url(#New_Gradient_Swatch_copy-2);
      }

      .cls-9 {
        fill: url(#New_Gradient_Swatch_copy);
      }
    </style>
    <linearGradient id="New_Gradient_Swatch_copy_2" data-name="New Gradient Swatch copy 2" x1="38.75" y1="39" x2="59.07" y2="18.67" gradientUnits="userSpaceOnUse">
      <stop offset="0" stop-color="#d0e8f8"/>
      <stop offset="1" stop-color="#e1eef9"/>
    </linearGradient>
    <linearGradient id="New_Gradient_Swatch_copy" data-name="New Gradient Swatch copy" x1="4.81" y1="51.41" x2="15.31" y2="51.41" gradientUnits="userSpaceOnUse">
      <stop offset="0" stop-color="#00aeef"/>
      <stop offset="1" stop-color="#00bdf2"/>
    </linearGradient>
    <linearGradient id="New_Gradient_Swatch_copy-2" data-name="New Gradient Swatch copy" x1="11.95" y1="54.45" x2="25.96" y2="54.45" xlink:href="#New_Gradient_Swatch_copy"/>
    <linearGradient id="New_Gradient_Swatch_copy_2-2" data-name="New Gradient Swatch copy 2" x1="33.19" y1="45.78" x2="37.19" y2="45.78" xlink:href="#New_Gradient_Swatch_copy_2"/>
    <linearGradient id="New_Gradient_Swatch_copy_2-3" data-name="New Gradient Swatch copy 2" x1="43.19" y1="45.78" x2="47.19" y2="45.78" xlink:href="#New_Gradient_Swatch_copy_2"/>
    <linearGradient id="New_Gradient_Swatch_copy_2-4" data-name="New Gradient Swatch copy 2" x1="24.19" y1="62.39" x2="28.19" y2="62.39" xlink:href="#New_Gradient_Swatch_copy_2"/>
    <linearGradient id="New_Gradient_Swatch_copy_2-5" data-name="New Gradient Swatch copy 2" x1="29.19" y1="53.89" x2="33.19" y2="53.89" xlink:href="#New_Gradient_Swatch_copy_2"/>
    <linearGradient id="New_Gradient_Swatch_copy_2-6" data-name="New Gradient Swatch copy 2" x1="39.19" y1="53.89" x2="43.19" y2="53.89" xlink:href="#New_Gradient_Swatch_copy_2"/>
  </defs>
  <g id="Icons">
    <g id="Sleet">
      <path class="cls-1" d="M46,36.44c5.89,0,10.66-4.77,10.66-10.66s-4.77-10.66-10.66-10.66c-.04,0-.07,0-.11,0C44.95,6.61,37.74,0,28.98,0c-6.92,0-12.86,4.13-15.53,10.05-.08,0-.17,0-.25,0C5.91,10.04,0,15.95,0,23.24s5.91,13.2,13.2,13.2"/>
      <path class="cls-4" d="M60.22,36.44c3.7,0,6.7-3,6.7-6.7s-3-6.7-6.7-6.7c-.02,0-.05,0-.07,0-.6-5.34-5.12-9.49-10.62-9.49-4.34,0-8.08,2.59-9.75,6.31-.05,0-.11,0-.16,0-4.58,0-8.29,3.71-8.29,8.29s3.71,8.29,8.29,8.29"/>
      <path class="cls-9" d="M6.81,59.04c-.34,0-.68-.09-1-.27-.96-.55-1.28-1.78-.73-2.73l6.5-11.26c.55-.96,1.77-1.29,2.73-.73,.96,.55,1.28,1.78,.73,2.73l-6.5,11.26c-.37,.64-1.04,1-1.73,1Z"/>
      <path class="cls-8" d="M13.95,65.11c-.34,0-.68-.09-1-.27-.96-.55-1.28-1.78-.73-2.73l10-17.32c.55-.96,1.77-1.29,2.73-.73,.96,.55,1.28,1.78,.73,2.73l-10,17.32c-.37,.64-1.04,1-1.73,1Z"/>
      <circle class="cls-5" cx="35.19" cy="45.78" r="2"/>
      <circle class="cls-7" cx="45.19" cy="45.78" r="2"/>
      <circle class="cls-2" cx="26.19" cy="62.39" r="2"/>
      <circle class="cls-6" cx="31.19" cy="53.89" r="2"/>
      <circle class="cls-3" cx="41.19" cy="53.89" r="2"/>
    </g>
  </g>
</svg>