<?xml version="1.0" encoding="UTF-8"?>
<svg id="Layer_2" data-name="Layer 2" xmlns="http://www.w3.org/2000/svg" xmlns:xlink="http://www.w3.org/1999/xlink" viewBox="0 0 67 68.09">
  <defs>
    <style>
      .cls-1 {
        fill: #fff;
      }

      .cls-2 {
        fill: url(#New_Gradient_Swatch_copy_2);
      }

      .cls-3 {
        fill: url(#New_Gradient_Swatch_copy);
      }

      .cls-4 {
        fill: url(#New_Gradient_Swatch_1);
      }
    </style>
    <linearGradient id="New_Gradient_Swatch_1" data-name="New Gradient Swatch 1" x1="15.79" y1="63.77" x2="35" y2="44.56" gradientUnits="userSpaceOnUse">
      <stop offset="0" stop-color="#fdb728"/>
      <stop offset="1" stop-color="#ffcd23"/>
    </linearGradient>
    <linearGradient id="New_Gradient_Swatch_copy" data-name="New Gradient Swatch copy" x1="42.62" y1="24.38" x2="58.22" y2="8.78" gradientUnits="userSpaceOnUse">
      <stop offset="0" stop-color="#00aeef"/>
      <stop offset="1" stop-color="#00bdf2"/>
    </linearGradient>
    <linearGradient id="New_Gradient_Swatch_copy_2" data-name="New Gradient Swatch copy 2" x1="11.8" y1="49.56" x2="44.17" y2="17.19" gradientUnits="userSpaceOnUse">
      <stop offset="0" stop-color="#d0e8f8"/>
      <stop offset="1" stop-color="#e1eef9"/>
    </linearGradient>
  </defs>
  <g id="Icons">
    <g id="Severe_Thunderstorm_Night" data-name="Severe Thunderstorm Night">
      <path class="cls-4" d="M27.6,41.75c-1.65,0-3.67,1.17-4.5,2.6l-5.27,9.12c-.82,1.43-.15,2.5,1.49,2.38l4.3-.32c1.65-.12,2.35,.97,1.56,2.42l-4.79,8.81c-.79,1.45-.39,1.78,.88,.73l17.3-14.23c1.27-1.05,.97-1.84-.68-1.75l-6.61,.34c-1.65,.08-2.32-1.02-1.5-2.44l2.91-5.04c.82-1.43,.15-2.6-1.5-2.6h-3.61Z"/>
      <path class="cls-3" d="M52.94,28.67c-8.05,0-14.61-6.55-14.61-14.61C38.33,7.59,42.68,1.82,48.91,.03c.27-.08,.56,0,.75,.19,.2,.2,.27,.48,.19,.75-.34,1.19-.52,2.41-.52,3.61,0,7.21,5.87,13.08,13.08,13.08,1.2,0,2.41-.17,3.61-.52,.27-.08,.56,0,.75,.19,.2,.2,.27,.48,.19,.75-1.79,6.23-7.56,10.57-14.03,10.57Z"/>
      <path class="cls-2" d="M46,45.49c5.89,0,10.66-4.77,10.66-10.66s-4.77-10.66-10.66-10.66c-.04,0-.07,0-.11,0-.95-8.5-8.16-15.12-16.91-15.12-6.92,0-12.86,4.13-15.53,10.05-.08,0-.17,0-.25,0-7.29,0-13.2,5.91-13.2,13.2s5.91,13.2,13.2,13.2"/>
      <path class="cls-1" d="M60.22,45.49c3.7,0,6.7-3,6.7-6.7s-3-6.7-6.7-6.7c-.02,0-.05,0-.07,0-.6-5.34-5.12-9.49-10.62-9.49-4.34,0-8.08,2.59-9.75,6.31-.05,0-.11,0-.16,0-4.58,0-8.29,3.71-8.29,8.29s3.71,8.29,8.29,8.29"/>
    </g>
  </g>
</svg>