<svg width="24" height="24" viewBox="0 0 24 24" fill="none" xmlns="http://www.w3.org/2000/svg">
<mask id="mask0_82_436" style="mask-type:alpha" maskUnits="userSpaceOnUse" x="0" y="0" width="24" height="24">
<rect width="24" height="24" fill="#D9D9D9"/>
</mask>
<g mask="url(#mask0_82_436)">
<mask id="mask1_82_436" style="mask-type:alpha" maskUnits="userSpaceOnUse" x="-2" y="-2" width="27" height="27">
<rect x="-2" y="-2" width="27" height="27" fill="#D9D9D9"/>
</mask>
<g mask="url(#mask1_82_436)">
<path d="M11.5 22.75C9.5125 22.75 7.89062 22.4359 6.63438 21.8078C5.37813 21.1797 4.75 20.3687 4.75 19.375C4.75 18.7188 5.02188 18.1469 5.56563 17.6594C6.10938 17.1719 6.85938 16.7875 7.81563 16.5063L8.4625 18.6438C8.14375 18.7375 7.85313 18.8547 7.59063 18.9953C7.32812 19.1359 7.15 19.2625 7.05625 19.375C7.3 19.675 7.8625 19.9375 8.74375 20.1625C9.625 20.3875 10.5437 20.5 11.5 20.5C12.4563 20.5 13.3797 20.3875 14.2703 20.1625C15.1609 19.9375 15.7281 19.675 15.9719 19.375C15.8781 19.2625 15.7 19.1359 15.4375 18.9953C15.175 18.8547 14.8844 18.7375 14.5656 18.6438L15.2125 16.5063C16.1687 16.7875 16.9141 17.1719 17.4484 17.6594C17.9828 18.1469 18.25 18.7188 18.25 19.375C18.25 20.3687 17.6219 21.1797 16.3656 21.8078C15.1094 22.4359 13.4875 22.75 11.5 22.75ZM11.5 15.2406C11.8375 14.6219 12.1938 14.0547 12.5688 13.5391C12.9438 13.0234 13.3094 12.5312 13.6656 12.0625C14.3594 11.1625 14.9125 10.3516 15.325 9.62969C15.7375 8.90781 15.9437 8.0125 15.9437 6.94375C15.9437 5.70625 15.5125 4.65625 14.65 3.79375C13.7875 2.93125 12.7375 2.5 11.5 2.5C10.2625 2.5 9.2125 2.93125 8.35 3.79375C7.4875 4.65625 7.05625 5.70625 7.05625 6.94375C7.05625 8.0125 7.2625 8.90781 7.675 9.62969C8.0875 10.3516 8.64063 11.1625 9.33438 12.0625C9.69063 12.5312 10.0563 13.0234 10.4313 13.5391C10.8063 14.0547 11.1625 14.6219 11.5 15.2406ZM11.5 19.375C11.2937 19.375 11.1062 19.3141 10.9375 19.1922C10.7688 19.0703 10.6469 18.9062 10.5719 18.7C10.1406 17.3687 9.59688 16.2531 8.94063 15.3531C8.28438 14.4531 7.64688 13.5906 7.02813 12.7656C6.42813 11.9406 5.90781 11.0875 5.46719 10.2063C5.02656 9.325 4.80625 8.2375 4.80625 6.94375C4.80625 5.06875 5.45312 3.48438 6.74687 2.19063C8.04062 0.896875 9.625 0.25 11.5 0.25C13.375 0.25 14.9594 0.896875 16.2531 2.19063C17.5469 3.48438 18.1937 5.06875 18.1937 6.94375C18.1937 8.2375 17.9781 9.325 17.5469 10.2063C17.1156 11.0875 16.5906 11.9406 15.9719 12.7656C15.3719 13.5906 14.7391 14.4531 14.0734 15.3531C13.4078 16.2531 12.8594 17.3687 12.4281 18.7C12.3531 18.9062 12.2312 19.0703 12.0625 19.1922C11.8938 19.3141 11.7063 19.375 11.5 19.375ZM11.5 9.33437C12.1562 9.33437 12.7188 9.1 13.1875 8.63125C13.6562 8.1625 13.8906 7.6 13.8906 6.94375C13.8906 6.2875 13.6562 5.725 13.1875 5.25625C12.7188 4.7875 12.1562 4.55312 11.5 4.55312C10.8438 4.55312 10.2812 4.7875 9.8125 5.25625C9.34375 5.725 9.10938 6.2875 9.10938 6.94375C9.10938 7.6 9.34375 8.1625 9.8125 8.63125C10.2812 9.1 10.8438 9.33437 11.5 9.33437Z" fill="white"/>
</g>
</g>
</svg>
