<svg width="77" height="77" viewBox="0 0 77 77" fill="none" xmlns="http://www.w3.org/2000/svg">
<g clip-path="url(#clip0_410_220)">
<path d="M39.19 65.0201C26.4 65.0201 16 54.6201 16 41.8301C16 31.5501 22.9 22.3901 32.79 19.5601C33.22 19.4401 33.67 19.5601 33.98 19.8701C34.29 20.1801 34.41 20.6401 34.29 21.0601C33.75 22.9501 33.47 24.8801 33.47 26.7901C33.47 38.2401 42.78 47.5501 54.23 47.5501C56.14 47.5501 58.06 47.2701 59.96 46.7301C60.39 46.6101 60.84 46.7301 61.15 47.0401C61.46 47.3501 61.58 47.8101 61.46 48.2301C58.62 58.1101 49.46 65.0201 39.19 65.0201Z" fill="url(#paint0_linear_410_220)"/>
<path d="M54.22 33.9901C53.79 35.5801 53.08 35.5801 52.65 33.9901C52.22 32.4001 50.57 30.7501 48.98 30.3201C47.39 29.8901 47.39 29.1801 48.98 28.7501C50.57 28.3201 52.22 26.6701 52.65 25.0801C53.08 23.4901 53.79 23.4901 54.22 25.0801C54.65 26.6701 56.3 28.3201 57.89 28.7501C59.48 29.1801 59.48 29.8901 57.89 30.3201C56.3 30.7501 54.65 32.4001 54.22 33.9901Z" fill="url(#paint1_linear_410_220)"/>
<path d="M45.92 17.9101C45.67 18.8401 45.25 18.8401 45 17.9101C44.75 16.9801 43.78 16.0201 42.85 15.7601C41.92 15.5001 41.92 15.0901 42.85 14.8401C43.78 14.5901 44.74 13.6201 45 12.6901C45.26 11.7601 45.67 11.7601 45.92 12.6901C46.17 13.6201 47.14 14.5801 48.07 14.8401C49 15.1001 49 15.5101 48.07 15.7601C47.14 16.0101 46.18 16.9801 45.92 17.9101Z" fill="url(#paint2_linear_410_220)"/>
</g>
<defs>
<linearGradient id="paint0_linear_410_220" x1="22.8" y1="58.2201" x2="47.57" y2="33.4501" gradientUnits="userSpaceOnUse">
<stop stop-color="#00AEEF"/>
<stop offset="1" stop-color="#00BDF2"/>
</linearGradient>
<linearGradient id="paint1_linear_410_220" x1="50.53" y1="32.4401" x2="56.33" y2="26.6401" gradientUnits="userSpaceOnUse">
<stop stop-color="#FDB728"/>
<stop offset="1" stop-color="#FFCD23"/>
</linearGradient>
<linearGradient id="paint2_linear_410_220" x1="43.77" y1="17.0001" x2="47.16" y2="13.6101" gradientUnits="userSpaceOnUse">
<stop stop-color="#FDB728"/>
<stop offset="1" stop-color="#FFCD23"/>
</linearGradient>
<clipPath id="clip0_410_220">
<rect width="45.51" height="53.02" fill="white" transform="translate(16 12)"/>
</clipPath>
</defs>
</svg>
