<svg width="77" height="77" viewBox="0 0 77 77" fill="none" xmlns="http://www.w3.org/2000/svg">
<g clip-path="url(#clip0_410_223)">
<path d="M53.32 43.92C60.4776 43.92 66.28 38.1176 66.28 30.96C66.28 23.8024 60.4776 18 53.32 18C46.1624 18 40.36 23.8024 40.36 30.96C40.36 38.1176 46.1624 43.92 53.32 43.92Z" fill="url(#paint0_linear_410_223)"/>
<path d="M51 58.2599C56.89 58.2599 61.66 53.4899 61.66 47.5999C61.66 41.7099 56.89 36.9399 51 36.9399C50.96 36.9399 50.93 36.9399 50.89 36.9399C49.94 28.4399 42.73 21.8199 33.98 21.8199C27.06 21.8199 21.12 25.9499 18.45 31.8699C18.37 31.8699 18.28 31.8699 18.2 31.8699C10.91 31.8599 5 37.7699 5 45.0599C5 52.3499 10.91 58.2599 18.2 58.2599" fill="white"/>
<path d="M65.22 58.26C68.92 58.26 71.92 55.26 71.92 51.56C71.92 47.86 68.92 44.86 65.22 44.86C65.2 44.86 65.17 44.86 65.15 44.86C64.55 39.52 60.03 35.37 54.53 35.37C50.19 35.37 46.45 37.96 44.78 41.68C44.73 41.68 44.67 41.68 44.62 41.68C40.04 41.68 36.33 45.39 36.33 49.97C36.33 54.55 40.04 58.26 44.62 58.26" fill="url(#paint1_linear_410_223)"/>
</g>
<defs>
<linearGradient id="paint0_linear_410_223" x1="44.16" y1="40.13" x2="62.49" y2="21.8" gradientUnits="userSpaceOnUse">
<stop stop-color="#FDB728"/>
<stop offset="1" stop-color="#FFCD23"/>
</linearGradient>
<linearGradient id="paint1_linear_410_223" x1="43.75" y1="60.82" x2="64.07" y2="40.49" gradientUnits="userSpaceOnUse">
<stop stop-color="#D0E8F8"/>
<stop offset="1" stop-color="#E1EEF9"/>
</linearGradient>
<clipPath id="clip0_410_223">
<rect width="66.92" height="40.26" fill="white" transform="translate(5 18)"/>
</clipPath>
</defs>
</svg>
