<svg width="77" height="77" viewBox="0 0 77 77" fill="none" xmlns="http://www.w3.org/2000/svg">
<g clip-path="url(#clip0_410_224)">
<path d="M57.94 44.67C49.89 44.67 43.33 38.12 43.33 30.06C43.33 23.59 47.68 17.82 53.91 16.03C54.18 15.95 54.47 16.03 54.66 16.22C54.86 16.42 54.93 16.7 54.85 16.97C54.51 18.16 54.33 19.38 54.33 20.58C54.33 27.79 60.2 33.66 67.41 33.66C68.61 33.66 69.82 33.49 71.02 33.14C71.29 33.06 71.58 33.14 71.77 33.33C71.97 33.53 72.04 33.81 71.96 34.08C70.17 40.31 64.4 44.65 57.93 44.65L57.94 44.67Z" fill="url(#paint0_linear_410_224)"/>
<path d="M51 61.1099C56.89 61.1099 61.66 56.3399 61.66 50.4499C61.66 44.5599 56.89 39.7899 51 39.7899C50.96 39.7899 50.93 39.7899 50.89 39.7899C49.94 31.2899 42.73 24.6699 33.98 24.6699C27.06 24.6699 21.12 28.7999 18.45 34.7199C18.37 34.7199 18.28 34.7199 18.2 34.7199C10.91 34.7099 5 40.6199 5 47.9099C5 55.1999 10.91 61.1099 18.2 61.1099" fill="url(#paint1_linear_410_224)"/>
<path d="M65.22 61.11C68.92 61.11 71.92 58.11 71.92 54.41C71.92 50.71 68.92 47.71 65.22 47.71C65.2 47.71 65.17 47.71 65.15 47.71C64.55 42.37 60.03 38.22 54.53 38.22C50.19 38.22 46.45 40.81 44.78 44.53C44.73 44.53 44.67 44.53 44.62 44.53C40.04 44.53 36.33 48.24 36.33 52.82C36.33 57.4 40.04 61.11 44.62 61.11" fill="white"/>
</g>
<defs>
<linearGradient id="paint0_linear_410_224" x1="47.62" y1="40.38" x2="63.22" y2="24.78" gradientUnits="userSpaceOnUse">
<stop stop-color="#00AEEF"/>
<stop offset="1" stop-color="#00BDF2"/>
</linearGradient>
<linearGradient id="paint1_linear_410_224" x1="16.8" y1="65.1799" x2="49.17" y2="32.8099" gradientUnits="userSpaceOnUse">
<stop stop-color="#D0E8F8"/>
<stop offset="1" stop-color="#E1EEF9"/>
</linearGradient>
<clipPath id="clip0_410_224">
<rect width="67" height="45.11" fill="white" transform="translate(5 16)"/>
</clipPath>
</defs>
</svg>
