<svg width="77" height="77" viewBox="0 0 77 77" fill="none" xmlns="http://www.w3.org/2000/svg">
<g clip-path="url(#clip0_410_214)">
<path d="M51 56.44C56.89 56.44 61.66 51.67 61.66 45.78C61.66 39.89 56.89 35.12 51 35.12C50.96 35.12 50.93 35.12 50.89 35.12C49.95 26.61 42.74 20 33.98 20C27.06 20 21.12 24.13 18.45 30.05C18.37 30.05 18.28 30.05 18.2 30.05C10.91 30.04 5 35.95 5 43.24C5 50.53 10.91 56.44 18.2 56.44" fill="white"/>
<path d="M65.22 56.44C68.92 56.44 71.92 53.44 71.92 49.74C71.92 46.04 68.92 43.04 65.22 43.04C65.2 43.04 65.17 43.04 65.15 43.04C64.55 37.7 60.03 33.55 54.53 33.55C50.19 33.55 46.45 36.14 44.78 39.86C44.73 39.86 44.67 39.86 44.62 39.86C40.04 39.86 36.33 43.57 36.33 48.15C36.33 52.73 40.04 56.44 44.62 56.44" fill="url(#paint0_linear_410_214)"/>
</g>
<defs>
<linearGradient id="paint0_linear_410_214" x1="43.75" y1="59" x2="64.07" y2="38.67" gradientUnits="userSpaceOnUse">
<stop stop-color="#D0E8F8"/>
<stop offset="1" stop-color="#E1EEF9"/>
</linearGradient>
<clipPath id="clip0_410_214">
<rect width="66.92" height="36.44" fill="white" transform="translate(5 20)"/>
</clipPath>
</defs>
</svg>
