<svg width="77" height="77" viewBox="0 0 77 77" fill="none" xmlns="http://www.w3.org/2000/svg">
<path d="M17.56 52.14C25.049 52.14 31.12 46.069 31.12 38.58C31.12 31.091 25.049 25.02 17.56 25.02C10.071 25.02 4 31.091 4 38.58C4 46.069 10.071 52.14 17.56 52.14Z" fill="#D0E8F8"/>
<path d="M36.89 58.57C43.7439 58.57 49.3 53.0139 49.3 46.16C49.3 39.3061 43.7439 33.75 36.89 33.75C30.0362 33.75 24.48 39.3061 24.48 46.16C24.48 53.0139 30.0362 58.57 36.89 58.57Z" fill="white"/>
<path d="M52.45 43.3501C58.26 43.3501 62.97 38.6401 62.97 32.8301C62.97 27.02 58.26 22.3101 52.45 22.3101C46.64 22.3101 41.93 27.02 41.93 32.8301C41.93 38.6401 46.64 43.3501 52.45 43.3501Z" fill="white"/>
<path d="M34.15 39.28C39.7502 39.28 44.29 34.7402 44.29 29.14C44.29 23.5398 39.7502 19 34.15 19C28.5498 19 24.01 23.5398 24.01 29.14C24.01 34.7402 28.5498 39.28 34.15 39.28Z" fill="#D0E8F8"/>
<path d="M64.72 49.0399C69.6132 49.0399 73.58 45.0732 73.58 40.1799C73.58 35.2867 69.6132 31.3199 64.72 31.3199C59.8267 31.3199 55.86 35.2867 55.86 40.1799C55.86 45.0732 59.8267 49.0399 64.72 49.0399Z" fill="white"/>
<path d="M53.9 51.22C58.7933 51.22 62.76 47.2532 62.76 42.36C62.76 37.4668 58.7933 33.5 53.9 33.5C49.0068 33.5 45.04 37.4668 45.04 42.36C45.04 47.2532 49.0068 51.22 53.9 51.22Z" fill="#D0E8F8"/>
</svg>
