<svg width="77" height="78" viewBox="0 0 77 78" fill="none" xmlns="http://www.w3.org/2000/svg">
<g clip-path="url(#clip0_410_207)">
<path d="M51 48.44C56.89 48.44 61.66 43.67 61.66 37.78C61.66 31.89 56.89 27.12 51 27.12C50.96 27.12 50.93 27.12 50.89 27.12C49.95 18.61 42.74 12 33.98 12C27.06 12 21.12 16.13 18.45 22.05C18.37 22.05 18.28 22.05 18.2 22.05C10.91 22.04 5 27.95 5 35.24C5 42.53 10.91 48.44 18.2 48.44" fill="white"/>
<path d="M65.22 48.44C68.92 48.44 71.92 45.44 71.92 41.74C71.92 38.04 68.92 35.04 65.22 35.04C65.2 35.04 65.17 35.04 65.15 35.04C64.55 29.7 60.03 25.55 54.53 25.55C50.19 25.55 46.45 28.14 44.78 31.86C44.73 31.86 44.67 31.86 44.62 31.86C40.04 31.86 36.33 35.57 36.33 40.15C36.33 44.73 40.04 48.44 44.62 48.44" fill="url(#paint0_linear_410_207)"/>
<path d="M11.8101 71.04C11.4701 71.04 11.1301 70.95 10.8101 70.77C9.85006 70.22 9.53006 68.99 10.0801 68.04L16.5801 56.78C17.1301 55.82 18.3601 55.5 19.3101 56.05C20.2701 56.6 20.5901 57.83 20.0401 58.78L13.5401 70.04C13.1701 70.68 12.5001 71.04 11.8101 71.04Z" fill="url(#paint1_linear_410_207)"/>
<path d="M18.95 77.11C18.61 77.11 18.27 77.02 17.95 76.84C16.99 76.29 16.67 75.06 17.22 74.11L27.22 56.79C27.77 55.83 29 55.51 29.95 56.06C30.91 56.61 31.23 57.84 30.68 58.79L20.68 76.11C20.31 76.75 19.64 77.11 18.95 77.11Z" fill="url(#paint2_linear_410_207)"/>
<path d="M43.73 70.18C43.39 70.18 43.05 70.09 42.73 69.91C41.77 69.36 41.45 68.13 42 67.18L48 56.79C48.55 55.83 49.77 55.51 50.73 56.06C51.69 56.61 52.01 57.84 51.46 58.79L45.46 69.18C45.09 69.82 44.42 70.18 43.73 70.18Z" fill="url(#paint3_linear_410_207)"/>
<path d="M31.84 73.64C31.5 73.64 31.16 73.55 30.84 73.37C29.88 72.82 29.56 71.59 30.11 70.64L38.11 56.78C38.66 55.82 39.89 55.5 40.84 56.05C41.8 56.6 42.12 57.83 41.57 58.78L33.57 72.64C33.2 73.28 32.53 73.64 31.84 73.64Z" fill="url(#paint4_linear_410_207)"/>
</g>
<defs>
<linearGradient id="paint0_linear_410_207" x1="43.75" y1="51" x2="64.07" y2="30.67" gradientUnits="userSpaceOnUse">
<stop stop-color="#D0E8F8"/>
<stop offset="1" stop-color="#E1EEF9"/>
</linearGradient>
<linearGradient id="paint1_linear_410_207" x1="9.82006" y1="63.41" x2="20.3101" y2="63.41" gradientUnits="userSpaceOnUse">
<stop stop-color="#00AEEF"/>
<stop offset="1" stop-color="#00BDF2"/>
</linearGradient>
<linearGradient id="paint2_linear_410_207" x1="16.96" y1="66.45" x2="30.96" y2="66.45" gradientUnits="userSpaceOnUse">
<stop stop-color="#00AEEF"/>
<stop offset="1" stop-color="#00BDF2"/>
</linearGradient>
<linearGradient id="paint3_linear_410_207" x1="41.74" y1="62.98" x2="51.74" y2="62.98" gradientUnits="userSpaceOnUse">
<stop stop-color="#00AEEF"/>
<stop offset="1" stop-color="#00BDF2"/>
</linearGradient>
<linearGradient id="paint4_linear_410_207" x1="29.85" y1="64.71" x2="41.85" y2="64.71" gradientUnits="userSpaceOnUse">
<stop stop-color="#00AEEF"/>
<stop offset="1" stop-color="#00BDF2"/>
</linearGradient>
<clipPath id="clip0_410_207">
<rect width="66.92" height="65.11" fill="white" transform="translate(5 12)"/>
</clipPath>
</defs>
</svg>
