<svg width="77" height="78" viewBox="0 0 77 78" fill="none" xmlns="http://www.w3.org/2000/svg">
<g clip-path="url(#clip0_410_209)">
<path d="M45.6 50.7C43.95 50.7 41.93 51.8699 41.1 53.2999L35.83 62.4199C35.01 63.8499 35.68 64.9199 37.32 64.7999L41.62 64.4799C43.27 64.36 43.97 65.45 43.18 66.9L38.39 75.7099C37.6 77.16 38 77.4899 39.27 76.4399L56.57 62.2099C57.84 61.1599 57.54 60.3699 55.89 60.4599L49.28 60.7999C47.63 60.8799 46.96 59.78 47.78 58.36L50.69 53.32C51.51 51.89 50.84 50.72 49.19 50.72H45.58L45.6 50.7Z" fill="url(#paint0_linear_410_209)"/>
<path d="M51 54.44C56.89 54.44 61.66 49.67 61.66 43.78C61.66 37.89 56.89 33.12 51 33.12C50.96 33.12 50.93 33.12 50.89 33.12C49.95 24.61 42.74 18 33.98 18C27.06 18 21.12 22.13 18.45 28.05C18.37 28.05 18.28 28.05 18.2 28.05C10.91 28.04 5 33.95 5 41.24C5 48.53 10.91 54.44 18.2 54.44" fill="white"/>
<path d="M65.22 54.44C68.92 54.44 71.92 51.44 71.92 47.74C71.92 44.04 68.92 41.04 65.22 41.04C65.2 41.04 65.17 41.04 65.15 41.04C64.55 35.7 60.03 31.55 54.53 31.55C50.19 31.55 46.45 34.14 44.78 37.86C44.73 37.86 44.67 37.86 44.62 37.86C40.04 37.86 36.33 41.57 36.33 46.15C36.33 50.73 40.04 54.44 44.62 54.44" fill="url(#paint1_linear_410_209)"/>
<path d="M10.81 76.9499C10.47 76.9499 10.13 76.8599 9.81 76.6799C8.85 76.1299 8.53 74.8999 9.08 73.9499L15.58 62.6899C16.13 61.7299 17.36 61.4099 18.31 61.9599C19.27 62.5099 19.59 63.7399 19.04 64.6899L12.54 75.9499C12.17 76.5899 11.5 76.9499 10.81 76.9499Z" fill="url(#paint2_linear_410_209)"/>
<path d="M21.45 76.9499C21.11 76.9499 20.77 76.8599 20.45 76.6799C19.49 76.1299 19.17 74.8999 19.72 73.9499L26.22 62.6899C26.77 61.7299 28 61.4099 28.95 61.9599C29.91 62.5099 30.23 63.7399 29.68 64.6899L23.18 75.9499C22.81 76.5899 22.14 76.9499 21.45 76.9499Z" fill="url(#paint3_linear_410_209)"/>
</g>
<defs>
<linearGradient id="paint0_linear_410_209" x1="33.79" y1="72.7199" x2="53" y2="53.5099" gradientUnits="userSpaceOnUse">
<stop stop-color="#FDB728"/>
<stop offset="1" stop-color="#FFCD23"/>
</linearGradient>
<linearGradient id="paint1_linear_410_209" x1="43.75" y1="57" x2="64.07" y2="36.67" gradientUnits="userSpaceOnUse">
<stop stop-color="#D0E8F8"/>
<stop offset="1" stop-color="#E1EEF9"/>
</linearGradient>
<linearGradient id="paint2_linear_410_209" x1="8.82" y1="69.3299" x2="19.31" y2="69.3299" gradientUnits="userSpaceOnUse">
<stop stop-color="#00AEEF"/>
<stop offset="1" stop-color="#00BDF2"/>
</linearGradient>
<linearGradient id="paint3_linear_410_209" x1="19.45" y1="17.9999" x2="29.95" y2="17.9999" gradientUnits="userSpaceOnUse">
<stop stop-color="#00AEEF"/>
<stop offset="1" stop-color="#00BDF2"/>
</linearGradient>
<clipPath id="clip0_410_209">
<rect width="66.92" height="59.05" fill="white" transform="translate(5 18)"/>
</clipPath>
</defs>
</svg>
