<svg width="37" height="37" viewBox="0 0 37 37" fill="none" xmlns="http://www.w3.org/2000/svg">
<mask id="mask0_55_7" style="mask-type:alpha" maskUnits="userSpaceOnUse" x="0" y="0" width="37" height="37">
<rect width="36.37" height="36.37" fill="#D9D9D9"/>
</mask>
<g mask="url(#mask0_55_7)">
<path d="M29.7022 31.8238L20.1551 22.2767C19.3974 22.8828 18.526 23.3627 17.541 23.7163C16.5559 24.0699 15.5078 24.2467 14.3965 24.2467C11.6435 24.2467 9.31351 23.2933 7.40661 21.3864C5.49971 19.4795 4.54626 17.1495 4.54626 14.3965C4.54626 11.6435 5.49971 9.31352 7.40661 7.40662C9.31351 5.49972 11.6435 4.54626 14.3965 4.54626C17.1495 4.54626 19.4794 5.49972 21.3863 7.40662C23.2932 9.31352 24.2467 11.6435 24.2467 14.3965C24.2467 15.5078 24.0699 16.556 23.7163 17.541C23.3627 18.526 22.8828 19.3974 22.2767 20.1551L31.8238 29.7022L29.7022 31.8238ZM14.3965 21.2159C16.2907 21.2159 17.9009 20.5529 19.2269 19.2269C20.5529 17.9009 21.2159 16.2908 21.2159 14.3965C21.2159 12.5022 20.5529 10.8921 19.2269 9.56609C17.9009 8.2401 16.2907 7.5771 14.3965 7.5771C12.5022 7.5771 10.8921 8.2401 9.56608 9.56609C8.24009 10.8921 7.57709 12.5022 7.57709 14.3965C7.57709 16.2908 8.24009 17.9009 9.56608 19.2269C10.8921 20.5529 12.5022 21.2159 14.3965 21.2159Z" fill="white"/>
</g>
</svg>
